<svg width="20" height="20" viewBox="0 0 20 20" fill="none" xmlns="http://www.w3.org/2000/svg">
<path d="M15.0007 10.0001C14.9966 9.56171 14.8199 9.14255 14.509 8.83347L10.934 5.25014C10.7778 5.09493 10.5666 5.00781 10.3465 5.00781C10.1263 5.00781 9.91512 5.09493 9.75898 5.25014C9.68088 5.32761 9.61888 5.41978 9.57657 5.52133C9.53427 5.62287 9.51249 5.7318 9.51249 5.84181C9.51249 5.95182 9.53427 6.06074 9.57657 6.16229C9.61888 6.26383 9.68088 6.356 9.75898 6.43347L12.5007 9.1668H4.16732C3.9463 9.1668 3.73434 9.2546 3.57806 9.41088C3.42178 9.56716 3.33398 9.77912 3.33398 10.0001C3.33398 10.2211 3.42178 10.4331 3.57806 10.5894C3.73434 10.7457 3.9463 10.8335 4.16732 10.8335H12.5007L9.75898 13.5751C9.60206 13.7309 9.51347 13.9427 9.51269 14.1638C9.51191 14.385 9.599 14.5974 9.75482 14.7543C9.91063 14.9112 10.1224 14.9998 10.3435 15.0006C10.5647 15.0014 10.7771 14.9143 10.934 14.7585L14.509 11.1751C14.822 10.864 14.9988 10.4414 15.0007 10.0001Z" fill="#000034"/>
</svg>
