<svg width="20" height="20" viewBox="0 0 20 20" fill="none" xmlns="http://www.w3.org/2000/svg">
<g clip-path="url(#clip0_4236_11652)">
<path d="M19.0408 6.39915L11.5408 0.529986C11.1009 0.18533 10.5581 -0.00195313 9.99918 -0.00195312C9.44028 -0.00195312 8.8975 0.18533 8.45752 0.529986L0.957515 6.39915C0.658176 6.6325 0.416246 6.9313 0.250274 7.27263C0.0843011 7.61397 -0.00130623 7.98877 1.50655e-05 8.36832V19.9992H20V8.36832C20.0011 7.98864 19.9153 7.61374 19.749 7.2724C19.5827 6.93105 19.3405 6.63233 19.0408 6.39915ZM18.3333 18.3325H1.66668V8.36832C1.66628 8.24168 1.69491 8.11664 1.75039 8.00281C1.80586 7.88897 1.8867 7.78937 1.98668 7.71165L9.48668 1.84249C9.63325 1.72787 9.81396 1.66561 10 1.66561C10.1861 1.66561 10.3668 1.72787 10.5133 1.84249L18.0133 7.71165C18.1133 7.78937 18.1942 7.88897 18.2496 8.00281C18.3051 8.11664 18.3338 8.24168 18.3333 8.36832V18.3325ZM10 6.67082C9.17501 6.67066 8.36852 6.91542 7.68276 7.37409C6.997 7.83275 6.46284 8.48466 6.14797 9.24722C5.83309 10.0098 5.75168 10.8486 5.91405 11.6575C6.07641 12.4664 6.47525 13.2089 7.06002 13.7908L10 16.6658L12.9467 13.7842C13.5296 13.2014 13.9265 12.4589 14.0874 11.6506C14.2482 10.8422 14.1657 10.0043 13.8502 9.24287C13.5348 8.48141 13.0006 7.83061 12.3153 7.37278C11.63 6.91495 10.8242 6.67066 10 6.67082ZM11.7742 12.5992L10 14.3325L8.23168 12.6058C7.88238 12.2565 7.64442 11.8114 7.54784 11.3269C7.45127 10.8424 7.50041 10.3402 7.68906 9.88357C7.87771 9.42698 8.19741 9.03651 8.6078 8.76147C9.01819 8.48643 9.50087 8.33915 9.99491 8.33822C10.4889 8.33729 10.9722 8.48275 11.3836 8.75625C11.795 9.02974 12.1162 9.419 12.3066 9.87488C12.4969 10.3308 12.548 10.8328 12.4532 11.3177C12.3584 11.8026 12.1222 12.2485 11.7742 12.5992ZM10.8333 10.8325C10.8333 10.9973 10.7845 11.1584 10.6929 11.2955C10.6013 11.4325 10.4712 11.5393 10.3189 11.6024C10.1666 11.6655 9.99909 11.682 9.83744 11.6498C9.67579 11.6177 9.5273 11.5383 9.41076 11.4217C9.29422 11.3052 9.21485 11.1567 9.18269 10.9951C9.15054 10.8334 9.16704 10.6659 9.23012 10.5136C9.29319 10.3613 9.4 10.2312 9.53704 10.1396C9.67408 10.048 9.8352 9.99915 10 9.99915C10.221 9.99915 10.433 10.0869 10.5893 10.2432C10.7456 10.3995 10.8333 10.6115 10.8333 10.8325Z" fill="#979AB8"/>
</g>
<defs>
<clipPath id="clip0_4236_11652">
<rect width="20" height="20" fill="white"/>
</clipPath>
</defs>
</svg>
