<svg width="20" height="20" viewBox="0 0 20 20" fill="none" xmlns="http://www.w3.org/2000/svg">
<g clip-path="url(#clip0_4236_52865)">
<path d="M5.83333 0C5.61232 0 5.40036 0.0877974 5.24408 0.244078C5.0878 0.400358 5 0.61232 5 0.833333V2.5C5 3.16304 4.73661 3.79893 4.26777 4.26777C3.79893 4.73661 3.16304 5 2.5 5H0.833333C0.61232 5 0.400358 5.0878 0.244078 5.24408C0.0877974 5.40036 0 5.61232 0 5.83333C0 6.05435 0.0877974 6.26631 0.244078 6.42259C0.400358 6.57887 0.61232 6.66667 0.833333 6.66667H2.5C3.60466 6.66534 4.6637 6.22593 5.44482 5.44482C6.22593 4.6637 6.66534 3.60466 6.66667 2.5V0.833333C6.66667 0.61232 6.57887 0.400358 6.42259 0.244078C6.26631 0.0877974 6.05435 0 5.83333 0V0Z" fill="#979AB8"/>
<path d="M19.1673 13.334H17.5006C16.396 13.3353 15.3369 13.7747 14.5558 14.5558C13.7747 15.3369 13.3353 16.396 13.334 17.5006V19.1673C13.334 19.3883 13.4218 19.6003 13.5781 19.7566C13.7343 19.9128 13.9463 20.0006 14.1673 20.0006C14.3883 20.0006 14.6003 19.9128 14.7566 19.7566C14.9129 19.6003 15.0006 19.3883 15.0006 19.1673V17.5006C15.0006 16.8376 15.264 16.2017 15.7329 15.7329C16.2017 15.264 16.8376 15.0006 17.5006 15.0006H19.1673C19.3883 15.0006 19.6003 14.9129 19.7566 14.7566C19.9128 14.6003 20.0006 14.3883 20.0006 14.1673C20.0006 13.9463 19.9128 13.7343 19.7566 13.5781C19.6003 13.4218 19.3883 13.334 19.1673 13.334Z" fill="#979AB8"/>
<path d="M17.5006 6.66667H19.1673C19.3883 6.66667 19.6003 6.57887 19.7566 6.42259C19.9128 6.26631 20.0006 6.05435 20.0006 5.83333C20.0006 5.61232 19.9128 5.40036 19.7566 5.24408C19.6003 5.0878 19.3883 5 19.1673 5H17.5006C16.8376 5 16.2017 4.73661 15.7329 4.26777C15.264 3.79893 15.0006 3.16304 15.0006 2.5V0.833333C15.0006 0.61232 14.9129 0.400358 14.7566 0.244078C14.6003 0.0877974 14.3883 0 14.1673 0C13.9463 0 13.7343 0.0877974 13.5781 0.244078C13.4218 0.400358 13.334 0.61232 13.334 0.833333V2.5C13.3353 3.60466 13.7747 4.6637 14.5558 5.44482C15.3369 6.22593 16.396 6.66534 17.5006 6.66667Z" fill="#979AB8"/>
<path d="M2.5 13.334H0.833333C0.61232 13.334 0.400358 13.4218 0.244078 13.5781C0.0877974 13.7343 0 13.9463 0 14.1673C0 14.3883 0.0877974 14.6003 0.244078 14.7566C0.400358 14.9129 0.61232 15.0006 0.833333 15.0006H2.5C3.16304 15.0006 3.79893 15.264 4.26777 15.7329C4.73661 16.2017 5 16.8376 5 17.5006V19.1673C5 19.3883 5.0878 19.6003 5.24408 19.7566C5.40036 19.9128 5.61232 20.0006 5.83333 20.0006C6.05435 20.0006 6.26631 19.9128 6.42259 19.7566C6.57887 19.6003 6.66667 19.3883 6.66667 19.1673V17.5006C6.66534 16.396 6.22593 15.3369 5.44482 14.5558C4.6637 13.7747 3.60466 13.3353 2.5 13.334Z" fill="#979AB8"/>
</g>
<defs>
<clipPath id="clip0_4236_52865">
<rect width="20" height="20" fill="white"/>
</clipPath>
</defs>
</svg>
