<svg width="138" height="30" viewBox="0 0 138 30" fill="none" xmlns="http://www.w3.org/2000/svg">
<path fill-rule="evenodd" clip-rule="evenodd" d="M0 29.9997H10.4078C10.6052 22.4045 14.5031 17.431 20.6147 15.836C8.35509 14.8581 1.72465 24.6007 0 29.9997Z" fill="#4EFDEA"/>
<path fill-rule="evenodd" clip-rule="evenodd" d="M20.6978 25.9917C17.9653 22.0006 20.6222 17.4501 21.446 16.6855C15.2678 18.9317 14.4312 27.7181 14.9355 29.9611L26.3742 29.9995C23.5672 28.9242 21.8208 27.5643 20.788 26.1237C20.6978 25.9917 20.6978 25.9917 20.6978 25.9917Z" fill="#006BF1"/>
<path fill-rule="evenodd" clip-rule="evenodd" d="M9.79688 0V8.64805C15.739 10.8218 32.3536 17.0032 21.6957 25.9922L21.7859 26.1242C25.1184 24.7516 27.2795 22.8995 28.2747 20.986C32.2845 13.2742 19.9953 5.05361 9.79688 0Z" fill="#7782F1"/>
<path d="M38.1309 22.3387V8.22581H44.3875C45.7421 8.22581 46.8687 8.68952 47.7673 9.61694C48.6658 10.5309 49.1151 11.6263 49.1151 12.9032C49.1151 13.8844 48.8335 14.7581 48.2702 15.5242C47.7069 16.2903 46.976 16.8078 46.0774 17.0766L49.2962 22.3387H46.6004L43.5224 17.379H40.5048V22.3387H38.1309ZM44.2869 15.2823C44.9977 15.2823 45.5945 15.0538 46.0774 14.5968C46.5602 14.1263 46.8016 13.5349 46.8016 12.8226C46.8016 12.1371 46.5803 11.5591 46.1377 11.0887C45.6951 10.6183 45.1117 10.3831 44.3875 10.3831H40.5048V15.2823H44.2869Z" fill="#000034"/>
<path d="M51.9508 13.0847C53.0237 12.0094 54.3113 11.4718 55.8134 11.4718C57.1546 11.4718 58.3214 11.9086 59.3139 12.7823C60.3198 13.6425 60.9367 14.7245 61.1647 16.0282C61.2452 16.3508 61.2854 16.6734 61.2854 16.996C61.2854 17.2782 61.2519 17.5605 61.1848 17.8427H52.6147C52.7488 18.6358 53.1109 19.2675 53.701 19.7379C54.3046 20.2083 55.0087 20.4435 55.8134 20.4435C57.0473 20.4435 58.0331 20 58.7707 19.1129L60.8227 19.6573C60.3935 20.5175 59.7028 21.2097 58.7506 21.7339C57.8118 22.2446 56.8327 22.5 55.8134 22.5C54.271 22.5 52.9701 21.9624 51.9106 20.8871C50.8644 19.8118 50.3414 18.5148 50.3414 16.996C50.3414 15.4637 50.8779 14.1599 51.9508 13.0847ZM52.6147 16.0685H58.9317C58.7975 15.3562 58.4421 14.7581 57.8654 14.2742C57.3021 13.7769 56.6114 13.5282 55.7933 13.5282C54.9752 13.5282 54.2778 13.7769 53.701 14.2742C53.1243 14.7581 52.7622 15.3562 52.6147 16.0685Z" fill="#000034"/>
<path d="M63.1396 8.22581H65.4531V13.1048C66.3249 12.0296 67.4716 11.4852 68.8932 11.4718C68.9066 11.4718 68.9268 11.4718 68.9536 11.4718C70.4155 11.4718 71.6561 12.0094 72.6754 13.0847C73.6947 14.1465 74.2043 15.4503 74.2043 16.996C74.2043 18.5282 73.7014 19.832 72.6955 20.9073C71.6896 21.9691 70.4222 22.5 68.8932 22.5C67.4716 22.5 66.3249 21.9758 65.4531 20.9274V22.3387H63.1396V8.22581ZM66.3182 19.3952C66.9753 20.0672 67.7666 20.4032 68.6921 20.4032C69.6175 20.4032 70.4021 20.0672 71.0458 19.3952C71.703 18.7231 72.0316 17.9234 72.0316 16.996C72.0316 16.0685 71.703 15.2688 71.0458 14.5968C70.4021 13.9113 69.6175 13.5685 68.6921 13.5685C67.7666 13.5685 66.9686 13.9113 66.298 14.5968C65.6409 15.2688 65.3123 16.0685 65.3123 16.996C65.3123 17.9234 65.6476 18.7231 66.3182 19.3952Z" fill="#000034"/>
<path d="M78.3822 11.6532V22.3387H76.0687V11.6532H78.3822ZM76.1894 7.92339C76.4844 7.64113 76.8398 7.5 77.2556 7.5C77.6714 7.5 78.0201 7.64113 78.3017 7.92339C78.5968 8.1922 78.7443 8.53495 78.7443 8.95161C78.7443 9.36828 78.6035 9.71102 78.3219 9.97984C78.0268 10.2621 77.6714 10.4032 77.2556 10.4032C76.8398 10.4032 76.4844 10.2688 76.1894 10C75.8943 9.71774 75.7468 9.36828 75.7468 8.95161C75.7468 8.54839 75.8943 8.20565 76.1894 7.92339Z" fill="#000034"/>
<path d="M80.7028 22.3387V8.22581H83.0164V22.3387H80.7028Z" fill="#000034"/>
<path d="M92.3062 11.6532V22.3387H89.9927V11.6532H92.3062ZM90.1134 7.92339C90.4085 7.64113 90.7639 7.5 91.1797 7.5C91.5954 7.5 91.9441 7.64113 92.2258 7.92339C92.5208 8.1922 92.6684 8.53495 92.6684 8.95161C92.6684 9.36828 92.5275 9.71102 92.2459 9.97984C91.9508 10.2621 91.5954 10.4032 91.1797 10.4032C90.7639 10.4032 90.4085 10.2688 90.1134 10C89.8184 9.71774 89.6708 9.36828 89.6708 8.95161C89.6708 8.54839 89.8184 8.20565 90.1134 7.92339Z" fill="#000034"/>
<path d="M95.8339 13.0847C96.9069 12.0094 98.2011 11.4718 99.7166 11.4718C101.232 11.4718 102.52 12.0161 103.579 13.1048C104.652 14.1801 105.189 15.4704 105.189 16.9758C105.189 18.4946 104.652 19.7984 103.579 20.8871C102.506 21.9624 101.219 22.5 99.7166 22.5C98.2011 22.5 96.9069 21.9624 95.8339 20.8871C94.761 19.7984 94.2245 18.4946 94.2245 16.9758C94.2245 15.457 94.761 14.1599 95.8339 13.0847ZM96.3972 16.9758C96.3972 17.9032 96.7191 18.703 97.3629 19.375C98.0066 20.047 98.7912 20.3831 99.7166 20.3831C100.629 20.3831 101.407 20.047 102.05 19.375C102.694 18.703 103.016 17.9032 103.016 16.9758C103.016 16.0484 102.694 15.2554 102.05 14.5968C101.42 13.9247 100.642 13.5887 99.7166 13.5887C98.7912 13.5887 98.0066 13.9247 97.3629 14.5968C96.7191 15.2554 96.3972 16.0484 96.3972 16.9758Z" fill="#000034"/>
<path d="M106.767 11.6532H109.081V13.0645C109.899 12.0027 111.005 11.4718 112.4 11.4718C113.621 11.4718 114.667 11.8683 115.539 12.6613C116.424 13.4409 116.866 14.4825 116.866 15.7863V22.3387H114.553V16.4113C114.553 15.5645 114.298 14.8925 113.788 14.3952C113.292 13.8844 112.675 13.629 111.938 13.629C111.093 13.629 110.402 13.9382 109.865 14.5565C109.342 15.1613 109.081 15.9207 109.081 16.8347V22.3387H106.767V11.6532Z" fill="#000034"/>
<path d="M118.446 20.9677C118.446 20.5376 118.594 20.1747 118.889 19.879C119.197 19.5699 119.566 19.4153 119.995 19.4153C120.425 19.4153 120.787 19.5699 121.082 19.879C121.377 20.1747 121.524 20.5376 121.524 20.9677C121.524 21.3979 121.377 21.7608 121.082 22.0565C120.787 22.3522 120.425 22.5 119.995 22.5C119.566 22.5 119.197 22.3522 118.889 22.0565C118.594 21.7608 118.446 21.3979 118.446 20.9677Z" fill="#000034"/>
<path d="M124.921 11.6532V22.3387H123.513V11.6532H124.921ZM123.473 8.04435C123.674 7.85618 123.922 7.7621 124.217 7.7621C124.526 7.7621 124.78 7.8629 124.982 8.06452C125.183 8.25269 125.283 8.49462 125.283 8.79032C125.283 9.08602 125.183 9.33468 124.982 9.53629C124.78 9.72446 124.526 9.81855 124.217 9.81855C123.922 9.81855 123.674 9.72446 123.473 9.53629C123.272 9.33468 123.171 9.08602 123.171 8.79032C123.171 8.49462 123.272 8.24597 123.473 8.04435Z" fill="#000034"/>
<path d="M128.665 13.0847C129.724 12.0094 131.012 11.4718 132.527 11.4718C134.056 11.4718 135.35 12.0161 136.41 13.1048C137.47 14.1801 137.999 15.4704 137.999 16.9758C137.999 18.4946 137.47 19.7917 136.41 20.8669C135.337 21.9556 134.043 22.5 132.527 22.5C131.012 22.5 129.724 21.9624 128.665 20.8871C127.605 19.8118 127.075 18.5081 127.075 16.9758C127.075 15.457 127.605 14.1599 128.665 13.0847ZM129.63 19.9597C130.422 20.7796 131.387 21.1895 132.527 21.1895C133.681 21.1895 134.653 20.7796 135.444 19.9597C136.249 19.1398 136.651 18.1452 136.651 16.9758C136.651 15.8065 136.249 14.8185 135.444 14.0121C134.653 13.1922 133.681 12.7823 132.527 12.7823C131.374 12.7823 130.401 13.1922 129.61 14.0121C128.819 14.8185 128.423 15.8065 128.423 16.9758C128.423 18.1586 128.826 19.1532 129.63 19.9597Z" fill="#000034"/>
<path d="M85.3066 22.3375V8.22461H87.6202V22.3375H85.3066Z" fill="#000034"/>
</svg>
